<?xml version="1.0" encoding="UTF-8" standalone="no"?>
<svg
   xmlns:dc="http://purl.org/dc/elements/1.1/"
   xmlns:cc="http://creativecommons.org/ns#"
   xmlns:rdf="http://www.w3.org/1999/02/22-rdf-syntax-ns#"
   xmlns:svg="http://www.w3.org/2000/svg"
   xmlns="http://www.w3.org/2000/svg"
   xmlns:sodipodi="http://sodipodi.sourceforge.net/DTD/sodipodi-0.dtd"
   xmlns:inkscape="http://www.inkscape.org/namespaces/inkscape"
   viewBox="0 0 512 512"
   id="svg3108"
   version="1.1"
   inkscape:version="0.48.4 r9939"
   width="100%"
   height="100%"
   sodipodi:docname="icon.svg"
   inkscape:export-filename="G:\downloads\jp-widget-visibility.png"
   inkscape:export-xdpi="90"
   inkscape:export-ydpi="90">
  <metadata
     id="metadata3156">
    <rdf:RDF>
      <cc:Work
         rdf:about="">
        <dc:format>image/svg+xml</dc:format>
        <dc:type
           rdf:resource="http://purl.org/dc/dcmitype/StillImage" />
        <dc:title />
      </cc:Work>
    </rdf:RDF>
  </metadata>
  <defs
     id="defs3154" />
  <sodipodi:namedview
     pagecolor="#ffffff"
     bordercolor="#666666"
     borderopacity="1"
     objecttolerance="10"
     gridtolerance="10"
     guidetolerance="10"
     inkscape:pageopacity="0"
     inkscape:pageshadow="2"
     inkscape:window-width="1366"
     inkscape:window-height="705"
     id="namedview3152"
     showgrid="false"
     showguides="true"
     inkscape:guide-bbox="true"
     inkscape:zoom="0.70710678"
     inkscape:cx="-63.526641"
     inkscape:cy="309.59613"
     inkscape:window-x="-8"
     inkscape:window-y="-8"
     inkscape:window-maximized="1"
     inkscape:current-layer="g3112" />
  <g
     transform="matrix(16.184785,-9.34429,9.34429,16.184785,-32096.072,-31639.69)"
     id="g3112">
    <path
       style="fill:#4a9ac6;fill-opacity:1;stroke:none"
       d="m 658.01149,2335.1274 c -1.80358,-1.0102 -3.47937,-1.18 -4.92512,-0.5458 l 1.01599,3.7917 c 1.11926,0.085 2.08794,0.5793 2.6196,1.6631 1.13922,-0.7428 2.10526,-2.0344 2.83211,-3.862 -0.52269,-0.4155 -1.03758,-0.7641 -1.54258,-1.047 z m -5.52815,-0.5715 -9.95077,2.6675 1.74656,6.5228 3.06455,-0.8199 c -0.0954,-2.0563 3.33126,-4.432 6.16139,-4.5618 l -1.02173,-3.8086 z m 7.41946,7.7031 c -0.9789,-0.5444 -1.92091,-0.8404 -2.80802,-0.8952 0.11868,1.2501 -0.47897,2.1942 -1.42925,2.8434 l 0.98968,3.6935 c 2.01053,-0.2269 3.6948,-1.7688 4.81335,-4.5813 -0.53101,-0.4222 -1.053,-0.7753 -1.56576,-1.0604 z m -5.12261,-2.7722 c -2.28893,-1.2196 -6.80193,1.4621 -6.25459,3.5059 0.67397,2.5154 8.46998,2.0319 7.39476,-1.9826 -0.2016,-0.7527 -0.61196,-1.2418 -1.14017,-1.5233 z m 0.37107,5.0259 c -2.55803,1.3259 -6.81089,0.9494 -7.66083,-0.961 l -3.04483,0.8158 1.74801,6.5237 9.95222,-2.6667 -0.99457,-3.7118 z m -12.71861,-5.4374 c -1.4071,-0.7137 -2.73467,-0.9232 -3.93518,-0.6385 l 1.68191,6.277 c 1.18309,-0.3538 2.23129,-1.1903 3.09483,-2.4977 l -0.84011,-3.14 -10e-4,-8e-4 z m -4.63872,0.1119 -5.93806,1.5899 -0.76584,1.3264 6.98422,-1.8702 -0.28032,-1.0461 z m 0.56064,2.0923 -8.03039,2.1505 -0.76584,1.3265 9.07654,-2.4308 -0.28031,-1.0462 z m 5.99401,4.9416 c -1.40767,-0.7146 -2.73553,-0.9241 -3.93662,-0.6393 l 1.68046,6.2761 c 1.1832,-0.3539 2.23202,-1.1918 3.09567,-2.4992 l -0.83951,-3.1376 z m -5.43483,-2.8501 -10.12125,2.712 -0.76584,1.3264 11.16741,-2.9923 -0.28032,-1.0461 z m 0.79405,2.9588 -10.91013,2.9246 1.32647,0.7659 9.86398,-2.6443 -0.28032,-1.0462 z m 0.56064,2.0924 -8.81927,2.3631 1.32648,0.7658 7.77311,-2.0828 -0.28032,-1.0461 z m 9.04368,5.8797 c -0.69418,-0.3892 -1.43647,-0.5799 -2.2281,-0.5719 -0.79155,0.01 -1.53811,0.2 -2.23861,0.5765 -0.0464,0.026 -0.0886,0.058 -0.12777,0.094 -0.0394,0.036 -0.0736,0.078 -0.10115,0.1251 -0.0272,0.048 -0.0444,0.099 -0.0577,0.1501 -0.0117,0.052 -0.0178,0.1039 -0.0177,0.1577 0.0241,0.795 0.23113,1.5375 0.61998,2.227 0.38893,0.6896 0.92518,1.2371 1.60941,1.6436 0.6941,0.3892 1.43603,0.5808 2.22727,0.5735 0.79114,-0.01 1.53787,-0.1999 2.23945,-0.5781 0.0464,-0.026 0.0887,-0.058 0.12777,-0.094 0.0394,-0.036 0.0721,-0.078 0.0997,-0.1258 0.0272,-0.048 0.0459,-0.099 0.0591,-0.1493 0.0116,-0.052 0.0178,-0.1039 0.0177,-0.1578 -0.0243,-0.7949 -0.23114,-1.5375 -0.61998,-2.227 -0.38894,-0.6895 -0.92526,-1.2372 -1.60941,-1.6436 z m -0.31832,0.548 c 0.0511,0.03 0.0822,0.075 0.0971,0.1295 0.0146,0.055 0.009,0.1086 -0.0194,0.1606 -0.0295,0.051 -0.0733,0.084 -0.12799,0.098 -0.0546,0.015 -0.10864,0.011 -0.16065,-0.019 -0.22878,-0.1205 -0.45966,-0.1543 -0.69648,-0.091 -0.23687,0.064 -0.4239,0.206 -0.55899,0.4264 -0.0295,0.051 -0.0724,0.082 -0.12716,0.097 -0.0546,0.015 -0.10864,0.011 -0.16065,-0.019 -0.0511,-0.029 -0.0822,-0.074 -0.0971,-0.1294 -0.0146,-0.055 -0.009,-0.1087 0.0194,-0.1607 0.19786,-0.3227 0.46923,-0.5297 0.81497,-0.6223 0.34574,-0.093 0.68434,-0.05 1.01695,0.1314 z m -8.16473,-4.3354 -6.72694,1.8025 1.32648,0.7658 5.68078,-1.5222 -0.28032,-1.0461 z m 6.51146,3.7845 c -0.15166,0.087 -0.28958,0.191 -0.41289,0.3138 -0.12298,0.123 -0.22783,0.2608 -0.31543,0.4126 -0.26748,0.4913 -0.33418,0.9913 -0.19791,1.4999 0.13623,0.5084 0.44409,0.908 0.92135,1.2 0.49129,0.2674 0.99139,0.3341 1.49991,0.1979 0.50849,-0.1364 0.9081,-0.4441 1.2,-0.9213 0.0875,-0.1518 0.15456,-0.3115 0.19959,-0.4795 0.045,-0.168 0.0665,-0.3396 0.0653,-0.5145 0.20946,0.3274 0.36929,0.6779 0.48086,1.05 0.11153,0.3722 0.17637,0.7518 0.19528,1.1399 -0.62756,0.3213 -1.28226,0.4911 -1.96496,0.5106 -0.68261,0.019 -1.33569,-0.145 -1.95862,-0.4936 -0.61326,-0.3656 -1.08241,-0.8485 -1.40681,-1.4494 -0.3245,-0.6009 -0.50483,-1.2528 -0.54029,-1.957 0.34551,-0.1776 0.70673,-0.3114 1.08486,-0.4009 0.37807,-0.09 0.76146,-0.1262 1.14972,-0.1085 z"
       id="path3136"
       inkscape:connector-curvature="0" />
  </g>
</svg>
